<?xml version="1.0" encoding="utf-8"?>
<!-- Generator: Adobe Illustrator 24.2.1, SVG Export Plug-In . SVG Version: 6.00 Build 0)  -->
<svg version="1.1" id="Calque_1" xmlns="http://www.w3.org/2000/svg" xmlns:xlink="http://www.w3.org/1999/xlink" x="0px" y="0px"
	 viewBox="0 0 1276.89 1105.63" style="enable-background:new 0 0 1276.89 1105.63;" xml:space="preserve">
<style type="text/css">
	.st0{fill:#0091C7;}
	.st1{fill:#678EAE;}
	.st2{fill:url(#SVGID_1_);}
	.st3{fill:url(#SVGID_2_);}
	.st4{fill:url(#SVGID_3_);}
	.st5{fill:url(#SVGID_4_);}
	.st6{fill:#0074BC;}
</style>
<g>
	<path class="st0" d="M867.78,132.77c0.28,0.19,0.57,0.37,0.85,0.56c-0.7,0.58-0.95,0.32-0.94-0.48
		C867.69,132.84,867.78,132.77,867.78,132.77z"/>
	<g>
		<path class="st1" d="M500.87,368.66h57.67l0.06,4.34l-0.08,144.6l-22.26-13.1c0,0,0-3.57,0-5.88c-0.07-33.63,0-100.95,0-100.95
			v-6.93l-88.38,0.15l-8.21,0l39.93-34.74l201.13-174.69l68.27,62.71v-11.89l13.27,0.08l48.77-0.08h5.69v74.18l87.48,79.4l5.37,5.03
			h-18.5l-65.64-0.12v6.95v104.89v6.58l-22.13,12.1v-6.73l-0.17-138.97l0.17-6.92c0,0,33.33,0,48.67,0
			c-4.52-4.25-172.2-157.92-172.2-157.92L500.87,368.66z"/>
		<rect x="633.43" y="319.44" class="st1" width="45.47" height="45.47"/>
		<rect x="685.25" y="319.44" class="st1" width="45.47" height="45.47"/>
		<rect x="633.43" y="371.28" class="st1" width="45.47" height="45.47"/>
		<rect x="685.25" y="371.28" class="st1" width="45.47" height="45.47"/>
	</g>
	<g>
		<linearGradient id="SVGID_1_" gradientUnits="userSpaceOnUse" x1="601.4458" y1="60.324" x2="631.2895" y2="452.7686">
			<stop  offset="0" style="stop-color:#00A9CB"/>
			<stop  offset="2.642214e-03" style="stop-color:#00A9CB"/>
			<stop  offset="0.3286" style="stop-color:#0094C8"/>
			<stop  offset="0.6151" style="stop-color:#0083C3"/>
			<stop  offset="0.8486" style="stop-color:#0078BE"/>
			<stop  offset="1" style="stop-color:#0074BC"/>
		</linearGradient>
		<path class="st2" d="M877.3,472.87c-47.72,46.33-104.6,73.71-170.89,79.03c-60.33,4.84-116.96-8.72-168.24-41.56
			c-47.14-30.19-83.06-70.58-107.74-120.93c-24.01-49.01-34-100.84-31.78-155.2c0.09-2.24,0.01-4.49,0.01-6.74
			c-0.64,0.1-1.28,0.21-1.92,0.31c-18.82,89.79-2.77,172.38,54.64,245.17c47.86,60.67,111.06,96.18,187.84,106.05
			c76.75,9.87,146.35-9.82,209.61-54.02c-0.35,1.6-0.91,2.52-1.68,3.21c-21.53,19.26-45.09,35.65-71.37,47.63
			c-75.13,34.24-151.85,36.14-229.28,8.83c-47.96-16.92-89.37-44.16-123.01-82.71c-26.63-30.52-45.19-65.43-57.88-103.77
			c-17.72-53.49-20.58-107.73-7.43-162.36c5.99-24.89,14.85-49.05,27.65-71.6c21.93-38.61,51.63-69.49,89.69-92.3
			c32.03-19.2,66.9-30.85,103.35-38.03c13.91-2.74,27.9-5.3,42.3-5.47c-0.51,1.55-1.46,1.42-2.31,1.58
			c-39.96,7.78-77.36,21.86-110.78,45.5c-27.98,19.79-50.44,44.63-67.71,74.23c-2.26,3.88-1.67,6.07,1.58,8.99
			c14.81,13.29,31.08,24.41,48.89,33.18c32.93,16.21,67.41,23.77,104.11,17.08c25.95-4.73,49.37-14.79,70.75-30.73
			c24.89-18.56,52.68-32.28,82.17-42.07c28.54-9.48,57.77-14.11,87.98-10.21c10.84,1.4,21.18,4.79,31.82,6.91l0.09-0.08
			c-0.32-3.11-2.68-5.06-4.38-7.3c-13.76-18.16-29.3-34.65-46.6-49.51C756.22,23.89,686.52-2.69,606.15,0.22
			C577.1,1.27,548.47,5.29,521,14.7c-35.77,12.25-68.67,30.28-99.31,52.51c-56.78,41.21-98.54,93.94-119.95,161.03
			c-21.23,66.55-21.48,134.19-1.6,201.07c29.17,98.13,91.54,167.16,186.38,206.42c34.65,14.35,71.03,21.46,108.2,24.51
			c26.21,2.15,52.72,2.98,78.63-1.5c66.33-11.49,124.02-41,172.85-87.37c32.2-30.57,56.48-66.81,75-107.06
			c13.73-29.84,21.71-61.55,30.73-92.93c3.67-12.78,6.54-25.74,7.64-39.07C944.08,386.2,917.71,433.63,877.3,472.87z"/>
		<linearGradient id="SVGID_2_" gradientUnits="userSpaceOnUse" x1="936.6822" y1="34.8307" x2="966.5259" y2="427.2753">
			<stop  offset="0" style="stop-color:#00A9CB"/>
			<stop  offset="1" style="stop-color:#0074BC"/>
		</linearGradient>
		<polygon class="st3" points="952.17,171.69 937.02,223.37 885.33,238.53 937.02,253.68 952.17,305.36 967.33,253.68 
			1019.01,238.53 967.33,223.37 		"/>
		<linearGradient id="SVGID_3_" gradientUnits="userSpaceOnUse" x1="1009.0458" y1="29.3278" x2="1038.8895" y2="421.7724">
			<stop  offset="0" style="stop-color:#00A9CB"/>
			<stop  offset="1" style="stop-color:#0074BC"/>
		</linearGradient>
		<polygon class="st4" points="1026.36,143.4 1018.33,116.03 1010.3,143.4 982.94,151.43 1010.3,159.45 1018.33,186.82 
			1026.36,159.45 1053.73,151.43 		"/>
		<linearGradient id="SVGID_4_" gradientUnits="userSpaceOnUse" x1="905.0145" y1="37.2389" x2="934.8582" y2="429.6835">
			<stop  offset="0" style="stop-color:#00A9CB"/>
			<stop  offset="1" style="stop-color:#0074BC"/>
		</linearGradient>
		<polygon class="st5" points="912.57,171.95 920.59,144.58 947.96,136.56 920.59,128.53 912.57,101.16 904.54,128.53 
			877.17,136.56 904.54,144.58 		"/>
	</g>
</g>
<g>
	<path class="st6" d="M363.11,914.96c0.75,1.89,1.5,3.67,2.26,5.37c0.75,1.7,1.41,3.3,1.98,4.8c0.75,1.7,1.41,3.39,1.98,5.09
		c-5.65,1.5-11.02,1.98-16.11,1.41c-4.34-0.38-8.71-1.7-13.14-3.96c-4.43-2.26-7.87-6.4-10.31-12.43
		c-1.13-2.64-3.21-7.82-6.22-15.54c-3.02-7.72-6.6-16.76-10.74-27.13h-80.25c-4.15,10.36-7.73,19.4-10.74,27.13
		c-3.02,7.73-5.09,12.91-6.22,15.54c-2.64,6.03-6.12,10.17-10.45,12.43c-4.34,2.26-8.67,3.58-13,3.96
		c-5.09,0.57-10.45,0.09-16.11-1.41c0.57-1.7,1.22-3.39,1.98-5.09c0.57-1.51,1.17-3.11,1.84-4.8c0.66-1.7,1.46-3.48,2.4-5.37
		c1.32-3.39,3.63-9.23,6.92-17.52c3.29-8.29,7.11-17.8,11.44-28.54c4.33-10.74,8.9-22.04,13.7-33.91
		c4.8-11.87,9.32-23.17,13.56-33.91c4.24-10.74,8.05-20.2,11.44-28.4c3.39-8.2,5.74-13.99,7.06-17.38
		c2.07-5.27,4.28-9.47,6.64-12.57c2.35-3.11,4.66-5.51,6.92-7.2s4.47-2.78,6.64-3.25c2.16-0.47,4.19-0.71,6.08-0.71
		c1.88,0,3.91,0.24,6.07,0.71c2.16,0.47,4.38,1.56,6.64,3.25s4.56,4.1,6.92,7.2c2.35,3.11,4.56,7.3,6.64,12.57
		c1.32,3.39,3.63,9.18,6.92,17.38c3.29,8.19,7.11,17.66,11.44,28.4c4.33,10.74,8.9,22.04,13.7,33.91
		c4.8,11.87,9.37,23.17,13.7,33.91c4.33,10.74,8.15,20.25,11.44,28.54C359.48,905.74,361.79,911.57,363.11,914.96z M302.08,844.6
		c-3.77-9.42-7.44-18.6-11.02-27.55c-3.58-8.94-6.69-17-9.33-24.16c-3.39-8.29-6.41-16.2-9.04-23.74
		c-3.02,7.54-6.12,15.45-9.33,23.74c-2.83,7.16-5.93,15.21-9.33,24.16c-3.39,8.95-6.97,18.13-10.74,27.55H302.08z"/>
	<path class="st6" d="M439.03,903.38c0,5.65,0.05,10.27,0.14,13.84c0.09,3.58,0.23,6.41,0.42,8.48c0.19,2.26,0.38,3.96,0.57,5.09
		c-11.68,0-20.63-2.45-26.84-7.35c-6.22-4.9-9.33-13-9.33-24.3l0.57-136.77h-62.17c0-8.48,2.35-15.26,7.06-20.35
		c4.71-5.09,11.4-7.63,20.06-7.63H501.2c0,8.48-2.36,15.26-7.06,20.34c-4.71,5.09-11.4,7.63-20.06,7.63h-35.32L439.03,903.38z"/>
	<path class="st6" d="M617.65,903.38c0,5.65,0.05,10.27,0.14,13.84c0.09,3.58,0.23,6.41,0.42,8.48c0.19,2.26,0.38,3.96,0.57,5.09
		c-11.68,0-20.63-2.45-26.84-7.35c-6.22-4.9-9.33-13-9.33-24.3l0.57-136.77h-62.17c0-8.48,2.35-15.26,7.06-20.35
		c4.71-5.09,11.4-7.63,20.06-7.63h131.68c0,8.48-2.36,15.26-7.06,20.34c-4.71,5.09-11.4,7.63-20.06,7.63h-35.32L617.65,903.38z"/>
	<path class="st6" d="M702.05,903.38V765.77c0-11.3,3.06-19.36,9.18-24.16c6.12-4.8,15.02-7.2,26.7-7.2
		c-0.19,1.13-0.38,2.83-0.57,5.09c-0.19,2.08-0.33,4.85-0.42,8.34c-0.1,3.49-0.14,8.05-0.14,13.7l-0.57,137.61
		c0,11.3-3.01,19.4-9.04,24.3c-6.03,4.9-14.79,7.35-26.28,7.35c0.19-1.13,0.37-2.83,0.57-5.09c0.19-2.07,0.28-4.9,0.28-8.48
		C701.76,913.65,701.85,909.03,702.05,903.38z"/>
	<path class="st6" d="M778.67,760.11c-0.19-5.65-0.28-10.22-0.28-13.7c0-3.48-0.1-6.26-0.28-8.34c-0.19-2.26-0.38-3.96-0.57-5.09
		c22.98,0,34.47,11.02,34.47,33.06l0.57,71.77c0,12.25,0.52,22.51,1.55,30.8c1.03,8.29,3.2,14.98,6.5,20.06
		c3.29,5.09,8,8.72,14.13,10.88c6.12,2.17,14.27,3.25,24.44,3.25c4.71,0,8.99-0.05,12.86-0.14c3.86-0.09,7.11-0.23,9.75-0.42
		c3.2-0.19,6.03-0.47,8.48-0.85v1.7c0,3.02-0.71,6.17-2.12,9.47c-1.41,3.3-3.58,6.26-6.5,8.9c-2.92,2.64-6.6,4.85-11.02,6.64
		c-4.43,1.79-9.75,2.69-15.97,2.69c-15.07,0-27.51-1.56-37.3-4.66c-9.8-3.11-17.57-8.34-23.31-15.68
		c-5.75-7.35-9.75-17.1-12.01-29.25c-2.26-12.15-3.39-27.17-3.39-45.07V760.11z"/>
	<path class="st6" d="M1094.63,914.96c0.75,1.89,1.5,3.67,2.26,5.37c0.75,1.7,1.41,3.3,1.98,4.8c0.75,1.7,1.41,3.39,1.98,5.09
		c-5.65,1.5-11.02,1.98-16.11,1.41c-4.34-0.38-8.71-1.7-13.14-3.96c-4.43-2.26-7.87-6.4-10.31-12.43
		c-1.13-2.64-3.21-7.82-6.22-15.54c-3.02-7.72-6.6-16.76-10.74-27.13h-80.25c-4.15,10.36-7.73,19.4-10.74,27.13
		c-3.02,7.73-5.09,12.91-6.22,15.54c-2.64,6.03-6.12,10.17-10.45,12.43c-4.34,2.26-8.67,3.58-13,3.96
		c-5.09,0.57-10.45,0.09-16.11-1.41c0.57-1.7,1.22-3.39,1.98-5.09c0.57-1.51,1.17-3.11,1.84-4.8c0.66-1.7,1.46-3.48,2.4-5.37
		c1.32-3.39,3.63-9.23,6.92-17.52c3.29-8.29,7.11-17.8,11.44-28.54c4.33-10.74,8.9-22.04,13.7-33.91
		c4.8-11.87,9.32-23.17,13.56-33.91c4.24-10.74,8.05-20.2,11.44-28.4c3.39-8.2,5.74-13.99,7.06-17.38
		c2.07-5.27,4.28-9.47,6.64-12.57c2.35-3.11,4.66-5.51,6.92-7.2s4.47-2.78,6.64-3.25c2.16-0.47,4.19-0.71,6.08-0.71
		c1.88,0,3.91,0.24,6.07,0.71c2.16,0.47,4.38,1.56,6.64,3.25s4.56,4.1,6.92,7.2c2.35,3.11,4.56,7.3,6.64,12.57
		c1.32,3.39,3.63,9.18,6.92,17.38c3.29,8.19,7.11,17.66,11.44,28.4c4.33,10.74,8.9,22.04,13.7,33.91
		c4.8,11.87,9.37,23.17,13.7,33.91c4.33,10.74,8.15,20.25,11.44,28.54C1091,905.74,1093.31,911.57,1094.63,914.96z M1033.59,844.6
		c-3.77-9.42-7.44-18.6-11.02-27.55c-3.58-8.94-6.69-17-9.33-24.16c-3.39-8.29-6.41-16.2-9.04-23.74
		c-3.02,7.54-6.12,15.45-9.33,23.74c-2.83,7.16-5.93,15.21-9.33,24.16c-3.39,8.95-6.97,18.13-10.74,27.55H1033.59z"/>
</g>
<g>
	<g>
		<path class="st1" d="M62.3,1016.21c-4.84,0-8.57-1.42-11.2-4.26c-2.63-2.84-3.94-6.62-3.94-11.36h21.77
			c4.73,0,8.73,0.74,11.99,2.21c3.15,1.26,5.62,3.21,7.41,5.84c1.79,2.63,3.02,5.63,3.71,8.99c0.68,3.37,1.03,6.99,1.03,10.88v6.47
			c0,4.52-0.82,8.65-2.44,12.38c-1.63,3.73-4.1,6.94-7.41,9.62c-3.31,2.68-7.41,4.76-12.3,6.23c-4.89,1.47-10.54,2.21-16.96,2.21
			c-6.94,0-13.64-1.21-20.11-3.63c-6.47-2.42-12.22-5.99-17.27-10.72c-5.05-4.73-9.07-10.62-12.07-17.67
			c-3-7.04-4.5-15.19-4.5-24.45c0-9.25,1.5-17.4,4.5-24.45c3-7.04,7.02-12.93,12.07-17.67c5.05-4.73,10.8-8.28,17.27-10.65
			c6.47-2.37,13.17-3.55,20.11-3.55c4.42,0,8.33,0.5,11.75,1.5c3.42,1,6.33,2.18,8.75,3.55c2.42,1.37,4.39,2.76,5.92,4.18
			c1.52,1.42,2.55,2.55,3.08,3.39c-0.42,0.63-0.84,1.21-1.26,1.74c-0.42,0.53-0.82,1.03-1.18,1.5c-0.37,0.47-0.82,0.82-1.34,1.03
			c-1.16,0.74-2.52,1.1-4.1,1.1c-1.47,0-2.84-0.24-4.1-0.71c-1.26-0.47-2.66-0.97-4.18-1.5c-1.53-0.52-3.34-1.02-5.44-1.5
			c-2.1-0.47-4.73-0.71-7.89-0.71c-4.1,0-8.12,0.84-12.07,2.52c-3.94,1.68-7.49,4.26-10.65,7.73c-3.16,3.47-5.68,7.91-7.57,13.33
			c-1.89,5.42-2.84,11.8-2.84,19.16c0,7.47,0.95,13.88,2.84,19.24c1.89,5.36,4.42,9.81,7.57,13.33c3.15,3.52,6.7,6.13,10.65,7.81
			c3.94,1.68,7.96,2.52,12.07,2.52c4.31,0,7.81-0.5,10.49-1.5c2.68-1,4.76-2.39,6.23-4.18c1.47-1.79,2.47-3.97,3-6.54
			c0.52-2.58,0.79-5.44,0.79-8.6v-7.73c0-1.58-0.16-2.94-0.47-4.1c-0.42-1.05-1.05-1.79-1.89-2.21c-0.42-0.32-1.32-0.58-2.68-0.79
			h-3.79H62.3z"/>
		<path class="st1" d="M163.56,1048.54c1.26,0.74,2.47,2,3.63,3.79l0.47,0.47l-0.47,0.47c-3.47,3.79-7.6,6.76-12.38,8.91
			c-4.79,2.15-9.96,3.23-15.54,3.23c-4.84,0-9.38-0.97-13.64-2.92c-4.26-1.94-8.02-4.65-11.28-8.12c-3.15-3.36-5.65-7.33-7.49-11.91
			c-1.84-4.57-2.76-9.49-2.76-14.75c0-5.26,0.81-10.17,2.44-14.75c1.63-4.57,3.97-8.6,7.02-12.07c3.05-3.36,6.75-6.04,11.12-8.04
			c4.36-2,9.23-3,14.59-3c2.94,0,6.18,0.45,9.7,1.34c3.52,0.89,6.81,2.31,9.86,4.26c3.05,1.95,5.57,4.5,7.57,7.65
			c2,3.15,3,6.94,3,11.36c0,4.31-1.1,7.81-3.31,10.49c-2.21,2.68-4.84,4.79-7.89,6.31c-3.05,1.53-6.29,2.58-9.7,3.15
			c-3.42,0.58-6.39,0.87-8.91,0.87c-3.89,0-7.28-0.24-10.17-0.71c-2.89-0.47-4.87-0.81-5.92-1.03c0.42,3.79,1.26,6.86,2.52,9.23
			c1.26,2.37,2.68,4.23,4.26,5.6c1.58,1.37,3.15,2.29,4.73,2.76c1.58,0.47,3,0.71,4.26,0.71c2.21,0,4.31-0.21,6.31-0.63
			c2-0.42,3.79-0.89,5.36-1.42c1.58-0.53,3.08-1.05,4.5-1.58c1.42-0.53,2.81-0.79,4.18-0.79
			C161.09,1047.43,162.4,1047.8,163.56,1048.54z M117.34,979.46c1.79-2.1,3.68-4.15,5.68-6.15c1.68-1.79,3.57-3.71,5.68-5.76
			c2.1-2.05,4.2-4.02,6.31-5.91c2.63-2.31,5.07-3.92,7.33-4.81c2.26-0.89,4.28-1.44,6.07-1.66c2-0.21,3.84-0.05,5.52,0.47
			c0.95,3.68,0.47,6.97-1.42,9.86c-1.89,2.89-4.65,5.34-8.28,7.33c-3.63,2-7.83,3.58-12.62,4.73
			C126.83,978.72,122.08,979.35,117.34,979.46z M139.27,1003.27c-1.16,0.11-2.52,0.39-4.1,0.87c-1.58,0.47-3.13,1.34-4.65,2.6
			c-1.53,1.26-2.92,3.05-4.18,5.36c-1.26,2.31-2.16,5.26-2.68,8.83c1.68,0.53,4.07,1.03,7.18,1.5c3.1,0.47,6.2,0.55,9.31,0.24
			c3.1-0.32,5.84-1.21,8.2-2.68c2.37-1.47,3.65-3.94,3.86-7.41c0.21-2.63-0.82-4.89-3.08-6.78
			C146.86,1003.9,143.58,1003.06,139.27,1003.27z"/>
		<path class="st1" d="M182.17,1025.83c0-7.04,1.03-12.8,3.08-17.27c2.05-4.47,4.7-7.96,7.96-10.49c3.26-2.52,6.91-4.23,10.96-5.13
			c4.05-0.89,8.07-1.34,12.07-1.34h7.73c0.52,2.21,0.63,4.26,0.32,6.15c-0.21,1.58-0.92,3.1-2.13,4.57
			c-1.21,1.47-3.18,2.37-5.91,2.68c-1.79,0.21-3.55,0.61-5.28,1.18c-1.73,0.58-3.29,1.58-4.65,3c-1.37,1.42-2.5,3.45-3.39,6.07
			c-0.89,2.63-1.34,6.15-1.34,10.57v22.87c0,3.15,0.02,5.71,0.08,7.65c0.05,1.95,0.13,3.5,0.24,4.65c0.1,1.26,0.21,2.21,0.32,2.84
			c-6.42,0-11.36-1.34-14.83-4.02c-3.47-2.68-5.21-7.18-5.21-13.49V1025.83z"/>
		<path class="st1" d="M286.73,1048.54c1.26,0.74,2.47,2,3.63,3.79l0.47,0.47l-0.47,0.47c-3.47,3.79-7.6,6.76-12.38,8.91
			c-4.79,2.15-9.96,3.23-15.54,3.23c-4.84,0-9.38-0.97-13.64-2.92c-4.26-1.94-8.02-4.65-11.28-8.12c-3.15-3.36-5.65-7.33-7.49-11.91
			c-1.84-4.57-2.76-9.49-2.76-14.75c0-5.26,0.81-10.17,2.44-14.75c1.63-4.57,3.97-8.6,7.02-12.07c3.05-3.36,6.75-6.04,11.12-8.04
			c4.36-2,9.23-3,14.59-3c2.94,0,6.18,0.45,9.7,1.34c3.52,0.89,6.81,2.31,9.86,4.26c3.05,1.95,5.57,4.5,7.57,7.65
			c2,3.15,3,6.94,3,11.36c0,4.31-1.1,7.81-3.31,10.49c-2.21,2.68-4.84,4.79-7.89,6.31c-3.05,1.53-6.29,2.58-9.7,3.15
			c-3.42,0.58-6.39,0.87-8.91,0.87c-3.89,0-7.28-0.24-10.17-0.71c-2.89-0.47-4.87-0.81-5.92-1.03c0.42,3.79,1.26,6.86,2.52,9.23
			c1.26,2.37,2.68,4.23,4.26,5.6c1.58,1.37,3.15,2.29,4.73,2.76c1.58,0.47,3,0.71,4.26,0.71c2.21,0,4.31-0.21,6.31-0.63
			c2-0.42,3.79-0.89,5.36-1.42c1.58-0.53,3.08-1.05,4.5-1.58c1.42-0.53,2.81-0.79,4.18-0.79
			C284.26,1047.43,285.58,1047.8,286.73,1048.54z M262.44,1003.27c-1.16,0.11-2.52,0.39-4.1,0.87c-1.58,0.47-3.13,1.34-4.65,2.6
			c-1.53,1.26-2.92,3.05-4.18,5.36c-1.26,2.31-2.16,5.26-2.68,8.83c1.68,0.53,4.07,1.03,7.18,1.5c3.1,0.47,6.2,0.55,9.31,0.24
			c3.1-0.32,5.84-1.21,8.2-2.68c2.37-1.47,3.65-3.94,3.86-7.41c0.21-2.63-0.82-4.89-3.08-6.78
			C270.04,1003.9,266.75,1003.06,262.44,1003.27z"/>
		<path class="st1" d="M357.31,1052.25c2.68,2.79,4.02,6.55,4.02,11.28l-58.36,0.16c-0.63-2.84-0.79-5.78-0.47-8.83
			c0.21-2.63,0.95-5.52,2.21-8.67s3.47-6.36,6.62-9.62c0.95-0.95,2.29-2.31,4.02-4.1c1.74-1.79,3.65-3.71,5.76-5.76
			c2.1-2.05,4.23-4.15,6.39-6.31c2.15-2.15,4.18-4.12,6.07-5.92c1.89-1.79,3.55-3.31,4.97-4.57s2.34-2,2.76-2.21h-23.18
			c-4.84,0-8.57-1.42-11.2-4.26c-2.63-2.84-3.94-6.62-3.94-11.36h58.36c0.84,2.95,1.1,5.94,0.79,8.99
			c-0.21,2.63-0.97,5.52-2.29,8.67c-1.32,3.15-3.6,6.26-6.86,9.31c-0.84,0.74-2.13,1.97-3.86,3.71c-1.74,1.73-3.68,3.65-5.84,5.76
			c-2.16,2.1-4.36,4.31-6.62,6.62c-2.26,2.31-4.31,4.42-6.15,6.31c-1.84,1.89-3.97,4.1-6.39,6.62h21.92
			C350.87,1048.07,354.63,1049.46,357.31,1052.25z"/>
		<path class="st1" d="M455.49,1057.53c-1.89,3.47-4.1,5.83-6.62,7.1c-2.52,1.26-4.89,2-7.1,2.21c-2.63,0.21-5.26-0.21-7.89-1.26
			c-0.84-1.89-1.97-4.55-3.39-7.97c-1.42-3.42-3-7.23-4.73-11.43c-1.73-4.2-3.58-8.62-5.52-13.25c-1.95-4.63-3.79-9.07-5.52-13.33
			c-1.74-4.26-3.31-8.12-4.73-11.59c-1.42-3.47-2.5-6.15-3.23-8.04c-0.42-0.95-0.84-1.89-1.26-2.84c-0.42-0.95-0.79-1.84-1.1-2.68
			c-0.42-0.95-0.79-1.89-1.1-2.84c3.15-0.73,6.15-1,8.99-0.79c2.42,0.21,4.86,0.92,7.33,2.13c2.47,1.21,4.44,3.5,5.92,6.86
			c0.42,1.16,1.03,2.71,1.81,4.65c0.79,1.95,1.63,4.08,2.52,6.39c0.89,2.31,1.84,4.73,2.84,7.25c1,2.52,1.97,5.05,2.92,7.57
			c2.21,5.78,4.63,12.04,7.26,18.77c2.52-6.73,4.94-12.99,7.25-18.77c0.95-2.52,1.94-5.05,3-7.57c1.05-2.52,2.02-4.94,2.92-7.25
			c0.89-2.31,1.71-4.44,2.44-6.39c0.73-1.94,1.37-3.5,1.89-4.65c1.37-3.36,3.31-5.65,5.84-6.86c2.52-1.21,4.99-1.92,7.41-2.13
			c2.84-0.21,5.83,0.05,8.99,0.79c-0.42,0.84-0.84,1.74-1.26,2.68c-0.32,0.84-0.68,1.76-1.1,2.76c-0.42,1-0.79,1.97-1.1,2.92
			c-0.74,2-1.73,4.6-3,7.81c-1.26,3.21-2.6,6.68-4.02,10.41c-1.42,3.73-2.94,7.57-4.57,11.51c-1.63,3.94-3.18,7.73-4.65,11.36
			c-1.47,3.63-2.87,6.89-4.18,9.78C457.41,1053.72,456.33,1055.95,455.49,1057.53z"/>
		<path class="st1" d="M543.66,1001.06c3.26,3.37,5.81,7.33,7.65,11.91c1.84,4.57,2.76,9.49,2.76,14.75
			c0,5.26-0.84,10.17-2.52,14.75c-1.68,4.57-4.05,8.54-7.1,11.91c-3.05,3.47-6.76,6.21-11.12,8.2c-4.36,2-9.23,3-14.59,3
			c-4.84,0-9.38-1-13.64-3c-4.26-2-8.02-4.73-11.28-8.2c-3.15-3.36-5.65-7.33-7.49-11.91c-1.84-4.57-2.76-9.49-2.76-14.75
			c0-5.26,0.81-10.17,2.44-14.75c1.63-4.57,3.97-8.54,7.02-11.91c3.05-3.47,6.75-6.2,11.12-8.2c4.36-2,9.23-3,14.59-3
			c4.94,0,9.54,1,13.8,3C536.8,994.86,540.5,997.59,543.66,1001.06z M518.74,1052.01c1.37,0,2.97-0.32,4.81-0.95
			c1.84-0.63,3.6-1.84,5.28-3.63c1.68-1.79,3.1-4.26,4.26-7.41c1.16-3.15,1.73-7.25,1.73-12.3c0-5.05-0.58-9.17-1.73-12.38
			c-1.16-3.21-2.58-5.68-4.26-7.41c-1.68-1.74-3.45-2.92-5.28-3.55c-1.84-0.63-3.45-0.95-4.81-0.95c-1.37,0-2.97,0.32-4.81,0.95
			c-1.84,0.63-3.6,1.81-5.28,3.55c-1.68,1.73-3.1,4.21-4.26,7.41c-1.16,3.21-1.74,7.33-1.74,12.38c0,5.05,0.58,9.15,1.74,12.3
			c1.16,3.16,2.58,5.63,4.26,7.41c1.68,1.79,3.44,3,5.28,3.63C515.76,1051.69,517.37,1052.01,518.74,1052.01z"/>
		<path class="st1" d="M609.27,1049.96c0,0.32,0.05,0.69,0.16,1.1c0.21,0.84,0.32,1.63,0.32,2.37c0,1.89-0.42,3.6-1.26,5.13
			c-0.84,1.53-2,2.81-3.47,3.86c-2.95,2.1-6.52,3.16-10.73,3.16c-3.47,0-6.89-0.79-10.25-2.37c-3.37-1.58-6.42-3.94-9.15-7.1
			c-2.74-3.15-4.92-7.07-6.54-11.75c-1.63-4.68-2.45-10.17-2.45-16.48l0.16-45.58c0-6.31,1.68-10.83,5.05-13.56
			c3.36-2.73,8.25-4.1,14.67-4.1c-0.11,0.74-0.21,1.74-0.32,3c-0.11,1.16-0.18,2.71-0.24,4.65c-0.05,1.95-0.08,4.5-0.08,7.65
			l0.16,9.94h21.13c0,4.73-1.32,8.52-3.94,11.36c-2.63,2.84-6.36,4.26-11.2,4.26h-5.99l-0.16,22.4c0,4.42,0.39,8.12,1.18,11.12
			c0.79,3,1.87,5.44,3.23,7.33c2.84,3.58,6.52,5.36,11.04,5.36c1.89,0,3.79-0.26,5.68-0.79
			C607.32,1050.59,608.32,1050.27,609.27,1049.96z"/>
		<path class="st1" d="M617.63,1025.83c0-7.04,1.03-12.8,3.08-17.27c2.05-4.47,4.7-7.96,7.96-10.49c3.26-2.52,6.91-4.23,10.96-5.13
			c4.05-0.89,8.07-1.34,12.07-1.34h7.73c0.52,2.21,0.63,4.26,0.32,6.15c-0.21,1.58-0.92,3.1-2.13,4.57
			c-1.21,1.47-3.18,2.37-5.91,2.68c-1.79,0.21-3.55,0.61-5.28,1.18c-1.73,0.58-3.29,1.58-4.65,3c-1.37,1.42-2.5,3.45-3.39,6.07
			c-0.89,2.63-1.34,6.15-1.34,10.57v22.87c0,3.15,0.02,5.71,0.08,7.65c0.05,1.95,0.13,3.5,0.24,4.65c0.1,1.26,0.21,2.21,0.32,2.84
			c-6.42,0-11.36-1.34-14.83-4.02c-3.47-2.68-5.21-7.18-5.21-13.49V1025.83z"/>
		<path class="st1" d="M722.19,1048.54c1.26,0.74,2.47,2,3.63,3.79l0.47,0.47l-0.47,0.47c-3.47,3.79-7.6,6.76-12.38,8.91
			c-4.79,2.15-9.96,3.23-15.54,3.23c-4.84,0-9.38-0.97-13.64-2.92c-4.26-1.94-8.02-4.65-11.28-8.12c-3.15-3.36-5.65-7.33-7.49-11.91
			c-1.84-4.57-2.76-9.49-2.76-14.75c0-5.26,0.81-10.17,2.44-14.75c1.63-4.57,3.97-8.6,7.02-12.07c3.05-3.36,6.75-6.04,11.12-8.04
			c4.36-2,9.23-3,14.59-3c2.94,0,6.18,0.45,9.7,1.34c3.52,0.89,6.81,2.31,9.86,4.26c3.05,1.95,5.57,4.5,7.57,7.65
			c2,3.15,3,6.94,3,11.36c0,4.31-1.1,7.81-3.31,10.49c-2.21,2.68-4.84,4.79-7.89,6.31c-3.05,1.53-6.29,2.58-9.7,3.15
			c-3.42,0.58-6.39,0.87-8.91,0.87c-3.89,0-7.28-0.24-10.17-0.71c-2.89-0.47-4.87-0.81-5.92-1.03c0.42,3.79,1.26,6.86,2.52,9.23
			c1.26,2.37,2.68,4.23,4.26,5.6c1.58,1.37,3.15,2.29,4.73,2.76c1.58,0.47,3,0.71,4.26,0.71c2.21,0,4.31-0.21,6.31-0.63
			c2-0.42,3.79-0.89,5.36-1.42c1.58-0.53,3.08-1.05,4.5-1.58c1.42-0.53,2.81-0.79,4.18-0.79
			C719.72,1047.43,721.04,1047.8,722.19,1048.54z M697.9,1003.27c-1.16,0.11-2.52,0.39-4.1,0.87c-1.58,0.47-3.13,1.34-4.65,2.6
			c-1.53,1.26-2.92,3.05-4.18,5.36c-1.26,2.31-2.16,5.26-2.68,8.83c1.68,0.53,4.07,1.03,7.18,1.5c3.1,0.47,6.2,0.55,9.31,0.24
			c3.1-0.32,5.84-1.21,8.2-2.68c2.37-1.47,3.65-3.94,3.86-7.41c0.21-2.63-0.82-4.89-3.08-6.78
			C705.5,1003.9,702.21,1003.06,697.9,1003.27z"/>
		<path class="st1" d="M874.86,1024.09c0-4.42-0.45-7.96-1.34-10.65c-0.89-2.68-2.08-4.78-3.55-6.31c-1.47-1.52-3.1-2.55-4.89-3.08
			c-1.79-0.53-3.58-0.79-5.36-0.79c-1.79,0-3.55,0.26-5.28,0.79c-1.74,0.53-3.31,1.55-4.73,3.08c-1.42,1.53-2.58,3.63-3.47,6.31
			c-0.89,2.68-1.34,6.23-1.34,10.65v24.45c0,3.15,0.05,5.73,0.16,7.73c0.1,2,0.21,3.58,0.32,4.73c0.1,1.26,0.21,2.21,0.32,2.84
			c-6.52,0-11.51-1.37-14.98-4.1c-3.47-2.73-5.21-7.2-5.21-13.41l0.16-22.24c0-4.42-0.45-7.96-1.34-10.65
			c-0.89-2.68-2.08-4.78-3.55-6.31c-1.47-1.52-3.1-2.55-4.89-3.08c-1.79-0.53-3.58-0.79-5.36-0.79c-1.79,0-3.55,0.26-5.28,0.79
			c-1.74,0.53-3.31,1.55-4.73,3.08c-1.42,1.53-2.55,3.63-3.39,6.31c-0.84,2.68-1.26,6.23-1.26,10.65v24.45
			c0,3.15,0.02,5.73,0.08,7.73c0.05,2,0.13,3.58,0.24,4.73c0.1,1.26,0.21,2.21,0.32,2.84c-6.52,0-11.51-1.37-14.98-4.1
			c-3.47-2.73-5.21-7.2-5.21-13.41l0.16-22.24c0-7.04,1.03-12.8,3.08-17.27c2.05-4.47,4.71-7.96,7.96-10.49
			c3.26-2.52,6.91-4.23,10.96-5.13c4.05-0.89,8.07-1.34,12.07-1.34c4.42,0,8.78,0.53,13.09,1.58c4.31,1.05,8.15,3.05,11.51,5.99
			c3.36-2.94,7.2-4.94,11.51-5.99c4.31-1.05,8.67-1.58,13.09-1.58c4,0,8.04,0.45,12.14,1.34c4.1,0.89,7.81,2.6,11.12,5.13
			c3.31,2.52,5.99,6.02,8.04,10.49c2.05,4.47,3.08,10.23,3.08,17.27v24.45c0,3.15,0.02,5.73,0.08,7.73c0.05,2,0.13,3.58,0.24,4.73
			c0.1,1.26,0.21,2.21,0.32,2.84c-6.52,0-11.49-1.37-14.91-4.1c-3.42-2.73-5.13-7.2-5.13-13.41L874.86,1024.09z"/>
		<path class="st1" d="M966.03,1048.54c1.26,0.74,2.47,2,3.63,3.79l0.47,0.47l-0.47,0.47c-3.47,3.79-7.6,6.76-12.38,8.91
			c-4.79,2.15-9.96,3.23-15.54,3.23c-4.84,0-9.38-0.97-13.64-2.92c-4.26-1.94-8.02-4.65-11.28-8.12c-3.15-3.36-5.65-7.33-7.49-11.91
			c-1.84-4.57-2.76-9.49-2.76-14.75c0-5.26,0.81-10.17,2.44-14.75c1.63-4.57,3.97-8.6,7.02-12.07c3.05-3.36,6.75-6.04,11.12-8.04
			c4.36-2,9.23-3,14.59-3c2.94,0,6.18,0.45,9.7,1.34c3.52,0.89,6.81,2.31,9.86,4.26c3.05,1.95,5.57,4.5,7.57,7.65
			c2,3.15,3,6.94,3,11.36c0,4.31-1.1,7.81-3.31,10.49c-2.21,2.68-4.84,4.79-7.89,6.31c-3.05,1.53-6.29,2.58-9.7,3.15
			c-3.42,0.58-6.39,0.87-8.91,0.87c-3.89,0-7.28-0.24-10.17-0.71c-2.89-0.47-4.87-0.81-5.92-1.03c0.42,3.79,1.26,6.86,2.52,9.23
			c1.26,2.37,2.68,4.23,4.26,5.6c1.58,1.37,3.15,2.29,4.73,2.76c1.58,0.47,3,0.71,4.26,0.71c2.21,0,4.31-0.21,6.31-0.63
			c2-0.42,3.79-0.89,5.36-1.42c1.58-0.53,3.08-1.05,4.5-1.58c1.42-0.53,2.81-0.79,4.18-0.79
			C963.55,1047.43,964.87,1047.8,966.03,1048.54z M919.81,979.46c1.79-2.1,3.68-4.15,5.68-6.15c1.68-1.79,3.57-3.71,5.68-5.76
			c2.1-2.05,4.2-4.02,6.31-5.91c2.63-2.31,5.07-3.92,7.33-4.81c2.26-0.89,4.28-1.44,6.07-1.66c2-0.21,3.84-0.05,5.52,0.47
			c0.95,3.68,0.47,6.97-1.42,9.86c-1.89,2.89-4.65,5.34-8.28,7.33c-3.63,2-7.83,3.58-12.62,4.73
			C929.3,978.72,924.54,979.35,919.81,979.46z M941.74,1003.27c-1.16,0.11-2.52,0.39-4.1,0.87c-1.58,0.47-3.13,1.34-4.65,2.6
			c-1.53,1.26-2.92,3.05-4.18,5.36c-1.26,2.31-2.16,5.26-2.68,8.83c1.68,0.53,4.07,1.03,7.18,1.5c3.1,0.47,6.2,0.55,9.31,0.24
			c3.1-0.32,5.84-1.21,8.2-2.68c2.37-1.47,3.65-3.94,3.86-7.41c0.21-2.63-0.82-4.89-3.08-6.78
			C949.33,1003.9,946.05,1003.06,941.74,1003.27z"/>
		<path class="st1" d="M984.79,1024.09c0-7.04,1.03-12.8,3.08-17.27c2.05-4.47,4.68-7.96,7.89-10.49c3.21-2.52,6.83-4.23,10.88-5.13
			c4.05-0.89,8.12-1.34,12.22-1.34c4,0,8.04,0.45,12.14,1.34c4.1,0.89,7.81,2.6,11.12,5.13c3.31,2.52,5.99,6.02,8.04,10.49
			c2.05,4.47,3.08,10.23,3.08,17.27l0.63,39.75c-6.42,0-11.36-1.37-14.83-4.1c-3.47-2.73-5.21-7.2-5.21-13.41l0.16-22.24
			c0-4.42-0.45-7.96-1.34-10.65c-0.89-2.68-2.08-4.78-3.55-6.31c-1.47-1.52-3.1-2.55-4.89-3.08c-1.79-0.53-3.58-0.79-5.36-0.79
			c-1.79,0-3.55,0.26-5.28,0.79c-1.74,0.53-3.31,1.55-4.73,3.08c-1.42,1.53-2.58,3.63-3.47,6.31c-0.89,2.68-1.34,6.23-1.34,10.65
			v24.45c0.1,3.15,0.18,5.73,0.24,7.73c0.05,2,0.13,3.58,0.24,4.73c0.1,1.26,0.21,2.21,0.32,2.84c-6.52,0-11.51-1.37-14.98-4.1
			c-3.47-2.73-5.21-7.2-5.21-13.41L984.79,1024.09z"/>
		<path class="st1" d="M1075.01,1023.62c2.84-1.79,6.04-3.13,9.62-4.02c3.57-0.89,7.31-1.34,11.2-1.34c5.47,0,10.67,0.79,15.61,2.37
			c-0.32-3.26-1-6.15-2.05-8.67c-1.37-3.26-3.42-5.62-6.15-7.1c-1.05-0.53-2.18-0.92-3.39-1.18c-1.21-0.26-2.6-0.39-4.18-0.39h-1.74
			c-1.47,0.11-2.94,0.34-4.42,0.71c-1.47,0.37-2.94,0.82-4.42,1.34c-1.47,0.53-2.95,0.97-4.42,1.34c-1.47,0.37-2.89,0.55-4.26,0.55
			c-1.47,0-2.89-0.32-4.26-0.95c-1.26-0.73-2.37-1.94-3.31-3.63l-0.32-0.63l0.32-0.47c3.15-3.36,6.86-6.07,11.12-8.12
			c4.26-2.05,8.91-3.23,13.96-3.55c0.53-0.1,0.97-0.16,1.34-0.16c0.37,0,0.81,0,1.34,0c4.83,0,9.25,0.87,13.25,2.6
			c3.99,1.73,7.46,4.13,10.41,7.18c5.99,6.52,9.09,15.09,9.31,25.71v1.26c0,10.94-2.79,19.82-8.36,26.66
			c-2.74,3.37-6.02,6.1-9.86,8.2c-3.84,2.1-8.12,3.42-12.85,3.94c-0.63,0.1-1.26,0.16-1.89,0.16s-1.32,0-2.05,0
			c-2.21,0-4.52-0.18-6.94-0.55c-2.42-0.37-4.79-1.08-7.1-2.13c-2.42-0.95-4.63-2.18-6.62-3.71c-2-1.52-3.68-3.49-5.05-5.91
			c-2-3.05-3.05-6.78-3.15-11.2v-0.95c0-4.1,0.84-7.52,2.52-10.25C1069.7,1027.98,1071.96,1025.62,1075.01,1023.62z
			 M1107.66,1031.19c-1.37-0.21-2.92-0.42-4.65-0.63c-1.74-0.21-3.5-0.32-5.28-0.32c-1.47,0-2.89,0.08-4.26,0.24
			c-1.37,0.16-2.63,0.45-3.79,0.87c-2.63,0.84-4.63,2.16-5.99,3.94c-0.53,0.63-0.95,1.34-1.26,2.13c-0.32,0.79-0.53,1.66-0.63,2.6
			c-0.11,0.32-0.16,0.79-0.16,1.42c0,1.05,0.16,2.18,0.47,3.39c0.32,1.21,0.95,2.34,1.89,3.39c0.84,1.05,2.07,1.95,3.71,2.68
			c1.63,0.74,3.81,1.1,6.54,1.1c0.84,0,1.47-0.05,1.89-0.16c2.94-0.1,5.52-0.95,7.73-2.52c1.05-0.63,1.94-1.39,2.68-2.29
			c0.73-0.89,1.37-1.87,1.89-2.92c1.16-2,1.94-4.05,2.37-6.15c0.42-2.1,0.63-4.05,0.63-5.84c-0.11,0-0.19-0.02-0.24-0.08
			c-0.05-0.05-0.13-0.08-0.24-0.08c-0.42-0.1-0.89-0.21-1.42-0.32C1109.02,1031.56,1108.39,1031.4,1107.66,1031.19z"/>
		<path class="st1" d="M1155.45,1061.95c4.73-1.47,9.83-2.5,15.3-3.08c5.47-0.58,10.54-0.29,15.22,0.87
			c4.68,1.16,8.54,3.37,11.59,6.62c3.05,3.26,4.57,7.94,4.57,14.04c0,4.52-1,8.46-3,11.83c-1.79,3.05-4.26,5.68-7.41,7.89
			c-3.05,2-6.26,3.42-9.62,4.26c-3.37,0.84-6.47,1.26-9.31,1.26h-1.42c-4.84-0.21-9.25-1.26-13.25-3.15
			c-4-1.89-7.52-4.47-10.57-7.73c-2.94-3.37-5.28-7.28-7.02-11.75c-1.73-4.47-2.71-9.54-2.92-15.22c-0.11-0.42-0.16-0.84-0.16-1.26
			c0-0.42,0-0.84,0-1.26c0-5.99,1.05-11.41,3.15-16.25c2.1-4.83,5.05-8.83,8.83-11.99c-3.37-2.52-6.02-5.6-7.96-9.23
			c-1.95-3.63-2.92-7.6-2.92-11.91c0-3.89,0.84-7.52,2.52-10.88c1.68-3.36,4-6.25,6.94-8.67c2.94-2.52,6.36-4.5,10.25-5.91
			c3.89-1.42,8.04-2.13,12.46-2.13c4.94,0,9.38,0.71,13.33,2.13c3.94,1.42,7.28,3.39,10.02,5.91c5.89,5.05,8.83,11.57,8.83,19.56
			c0,3.68-0.82,7.2-2.44,10.57c-1.63,3.37-3.86,6.26-6.7,8.67c-2.74,2.42-5.92,4.34-9.54,5.76c-3.63,1.42-7.49,2.24-11.59,2.44v0.16
			h-0.95c-3.47,0-6.26,0.58-8.36,1.73c-2.1,1.05-3.73,2.58-4.89,4.57c-1.16,1.68-1.95,3.79-2.37,6.31
			C1155.66,1058.63,1155.45,1060.58,1155.45,1061.95z M1184,1088.29c1.05-1.05,1.74-2.18,2.05-3.39c0.32-1.21,0.47-2.39,0.47-3.55
			c0-1.05-0.05-1.73-0.16-2.05c-0.32-1.47-0.89-2.84-1.74-4.1c-0.74-0.95-1.79-1.79-3.15-2.52c-1.37-0.63-2.84-1.08-4.42-1.34
			c-1.58-0.26-3.21-0.39-4.89-0.39c-1.68,0-3.37,0.1-5.05,0.32c-1.68,0.21-3.26,0.45-4.73,0.71c-1.47,0.26-2.76,0.55-3.86,0.87
			c-1.1,0.32-1.92,0.52-2.44,0.63c0.21,1.26,0.47,2.63,0.79,4.1c0.32,1.47,0.79,2.94,1.42,4.42c0.73,1.68,1.63,3.23,2.68,4.65
			c1.05,1.42,2.37,2.55,3.94,3.39c2.21,1.37,4.83,2.05,7.89,2.05c3.05,0,5.44-0.37,7.18-1.1
			C1181.71,1090.23,1183.05,1089.34,1184,1088.29z M1170.75,1001.7c-0.95,0-2.1,0.19-3.47,0.55c-1.37,0.37-2.66,1.08-3.86,2.13
			c-1.21,1.05-2.24,2.5-3.08,4.34c-0.84,1.84-1.26,4.23-1.26,7.18c0,2.95,0.42,5.34,1.26,7.18c0.84,1.84,1.87,3.26,3.08,4.26
			c1.21,1,2.5,1.68,3.86,2.05c1.37,0.37,2.52,0.55,3.47,0.55c1.05,0,2.26-0.18,3.63-0.55c1.37-0.37,2.65-1.05,3.86-2.05
			c1.21-1,2.23-2.42,3.08-4.26c0.84-1.84,1.26-4.23,1.26-7.18c0-2.94-0.42-5.33-1.26-7.18c-0.84-1.84-1.87-3.28-3.08-4.34
			c-1.21-1.05-2.5-1.76-3.86-2.13C1173.01,1001.88,1171.8,1001.7,1170.75,1001.7z"/>
		<path class="st1" d="M1271.06,1048.54c1.26,0.74,2.47,2,3.63,3.79l0.47,0.47l-0.47,0.47c-3.47,3.79-7.6,6.76-12.38,8.91
			c-4.79,2.15-9.96,3.23-15.54,3.23c-4.84,0-9.38-0.97-13.64-2.92c-4.26-1.94-8.02-4.65-11.28-8.12c-3.15-3.36-5.65-7.33-7.49-11.91
			c-1.84-4.57-2.76-9.49-2.76-14.75c0-5.26,0.81-10.17,2.44-14.75c1.63-4.57,3.97-8.6,7.02-12.07c3.05-3.36,6.75-6.04,11.12-8.04
			c4.36-2,9.23-3,14.59-3c2.94,0,6.18,0.45,9.7,1.34c3.52,0.89,6.81,2.31,9.86,4.26c3.05,1.95,5.57,4.5,7.57,7.65
			c2,3.15,3,6.94,3,11.36c0,4.31-1.1,7.81-3.31,10.49c-2.21,2.68-4.84,4.79-7.89,6.31c-3.05,1.53-6.29,2.58-9.7,3.15
			c-3.42,0.58-6.39,0.87-8.91,0.87c-3.89,0-7.28-0.24-10.17-0.71c-2.89-0.47-4.87-0.81-5.92-1.03c0.42,3.79,1.26,6.86,2.52,9.23
			c1.26,2.37,2.68,4.23,4.26,5.6c1.58,1.37,3.15,2.29,4.73,2.76c1.58,0.47,3,0.71,4.26,0.71c2.21,0,4.31-0.21,6.31-0.63
			c2-0.42,3.79-0.89,5.36-1.42c1.58-0.53,3.08-1.05,4.5-1.58c1.42-0.53,2.81-0.79,4.18-0.79
			C1268.59,1047.43,1269.9,1047.8,1271.06,1048.54z M1246.77,1003.27c-1.16,0.11-2.52,0.39-4.1,0.87c-1.58,0.47-3.13,1.34-4.65,2.6
			c-1.53,1.26-2.92,3.05-4.18,5.36c-1.26,2.31-2.16,5.26-2.68,8.83c1.68,0.53,4.07,1.03,7.18,1.5c3.1,0.47,6.2,0.55,9.31,0.24
			c3.1-0.32,5.84-1.21,8.2-2.68c2.37-1.47,3.65-3.94,3.86-7.41c0.21-2.63-0.82-4.89-3.08-6.78
			C1254.36,1003.9,1251.08,1003.06,1246.77,1003.27z"/>
	</g>
</g>
</svg>
